<?xml version="1.0" standalone="no"?>
<!DOCTYPE svg PUBLIC "-//W3C//DTD SVG 20010904//EN"
 "http://www.w3.org/TR/2001/REC-SVG-20010904/DTD/svg10.dtd">
<svg version="1.0" xmlns="http://www.w3.org/2000/svg"
 width="150.000000pt" height="150.000000pt" viewBox="0 0 150.000000 150.000000"
 preserveAspectRatio="xMidYMid meet">
<metadata>
Created by potrace 1.14, written by Peter Selinger 2001-2017
</metadata>
<g transform="translate(0.000000,150.000000) scale(0.100000,-0.100000)"
fill="#000000" stroke="none">
<path d="M0 750 l0 -750 750 0 750 0 0 750 0 750 -750 0 -750 0 0 -750z m905
524 c120 -40 253 -162 315 -289 108 -220 65 -463 -110 -629 -117 -110 -231
-151 -399 -144 -83 3 -106 8 -165 36 -89 42 -147 89 -194 160 -81 121 -113
231 -101 347 17 165 64 278 157 378 63 67 42 58 -36 -15 -64 -60 -65 -60 -17
-9 79 85 208 156 328 181 56 12 161 4 222 -16z m-605 -244 c-6 -11 -13 -20
-16 -20 -2 0 0 9 6 20 6 11 13 20 16 20 2 0 0 -9 -6 -20z"/>
<path d="M724 1270 c-75 -5 -115 -14 -155 -32 -98 -45 -205 -160 -258 -278
-35 -77 -23 -78 14 -2 113 236 394 334 631 220 168 -81 264 -236 264 -426 0
-141 -45 -249 -144 -347 -30 -29 -38 -41 -20 -28 71 50 134 137 169 232 8 20
14 29 14 20 1 -9 -15 -48 -34 -86 -83 -167 -270 -275 -471 -272 -67 1 -160 14
-129 18 6 1 -22 17 -62 37 -87 44 -167 120 -210 200 -42 80 -54 130 -55 232
l-1 87 -9 -60 c-15 -105 16 -251 69 -321 12 -17 21 -33 18 -36 -9 -9 83 -105
132 -137 173 -115 439 -88 608 61 121 107 191 295 170 455 -8 52 -9 55 -16 28
l-7 -30 -1 35 c-2 49 -43 161 -81 221 -56 87 -198 179 -302 196 -34 5 -38 8
-23 14 23 9 26 9 -111 -1z m533 -522 c-2 -13 -4 -5 -4 17 -1 22 1 32 4 23 2
-10 2 -28 0 -40z m-10 -85 c-3 -10 -5 -4 -5 12 0 17 2 24 5 18 2 -7 2 -21 0
-30z m-862 -253 c10 -11 16 -20 13 -20 -3 0 -13 9 -23 20 -10 11 -16 20 -13
20 3 0 13 -9 23 -20z"/>
<path d="M878 1263 c7 -3 16 -2 19 1 4 3 -2 6 -13 5 -11 0 -14 -3 -6 -6z"/>
<path d="M760 993 c-35 -7 -60 -32 -60 -59 0 -21 -3 -22 -26 -14 -77 29 -182
-7 -221 -76 -27 -47 -31 -140 -8 -183 32 -63 113 -106 185 -99 34 3 35 4 38
49 l3 45 -51 0 c-43 -1 -55 3 -71 23 -10 13 -19 27 -19 32 0 5 36 9 80 9 l80
0 1 -47 c1 -27 2 -52 4 -58 1 -5 3 -18 3 -27 1 -10 11 -27 22 -38 18 -18 33
-20 155 -20 l135 0 0 45 0 45 -105 0 -105 0 0 50 0 50 65 0 65 0 0 40 0 40
-65 0 -65 0 0 50 0 50 105 0 105 0 0 50 0 50 -112 -1 c-62 -1 -124 -4 -138 -6z
m-105 -173 c18 -20 17 -20 -51 -20 l-69 1 24 19 c30 26 73 25 96 0z"/>
<path d="M281 864 c0 -11 3 -14 6 -6 3 7 2 16 -1 19 -3 4 -6 -2 -5 -13z"/>
</g>
</svg>
